<svg id="Layer_1" data-name="Layer 1" xmlns="http://www.w3.org/2000/svg" viewBox="0 0 512 512"><defs><style>.cls-1{fill:#fff;}</style></defs><title>Artboard 1</title><path class="cls-1" d="M286,416H118a8,8,0,0,0,0,16H286a8,8,0,0,0,0-16Z"/><path class="cls-1" d="M326,416H310a8,8,0,0,0,0,16h16a8,8,0,0,0,0-16Z"/><path class="cls-1" d="M382,176h32a8,8,0,0,0,8-8V80a8,8,0,0,0-8-8H382a8,8,0,0,0-8,8v88A8,8,0,0,0,382,176Zm8-88h16v72H390Z"/><path class="cls-1" d="M382,232h32a8,8,0,0,0,8-8V192a8,8,0,0,0-8-8H382a8,8,0,0,0-8,8v32A8,8,0,0,0,382,232Zm8-32h16v16H390Z"/><path class="cls-1" d="M510,152A111.93,111.93,0,0,0,332,61.55,151.15,151.15,0,0,0,293.9,45.32a40,40,0,0,0-79.8.06C149.58,63.11,102,122.75,102,193.38V377.12a16,16,0,0,1-2.43,8.48L86.17,407a32,32,0,0,0,27.13,49h85.28a56,56,0,0,0,110.84,0H394.7a32,32,0,0,0,27.13-49l-13.4-21.44a16,16,0,0,1-2.43-8.48V263.71A112.14,112.14,0,0,0,510,152ZM254,24a24,24,0,0,1,23.18,17.78A153,153,0,0,0,254,40h-.05a150.56,150.56,0,0,0-23.11,1.78A24,24,0,0,1,254,24Zm0,464a40.07,40.07,0,0,1-39.2-32h78.4A40.07,40.07,0,0,1,254,488Zm154.27-72.48A16,16,0,0,1,394.7,440H113.3a16,16,0,0,1-13.57-24.48l13.4-21.44a31.88,31.88,0,0,0,4.87-17V193.38C118,117.67,179,56,253.93,56H254A135.5,135.5,0,0,1,319.1,72.58,111.95,111.95,0,0,0,390,263.71V377.12a31.88,31.88,0,0,0,4.87,17ZM398,248a96,96,0,1,1,96-96A96,96,0,0,1,398,248Z"/></svg>