<svg id="Layer_1" data-name="Layer 1" xmlns="http://www.w3.org/2000/svg" viewBox="0 0 511 511"><defs><style>.cls-1{fill:#fff;}</style></defs><title>Artboard 1</title><g id="surface1"><path class="cls-1" d="M316.7,202a7.5,7.5,0,0,0-1.15,10.55c50.6,63,77.35,113.52,77.35,146,0,75.27-61.23,136.5-136.5,136.5s-136.5-61.23-136.5-136.5c0-67.07,110.72-186.38,136.5-213.24,7.38,7.67,21.7,22.89,38.29,42.19a7.5,7.5,0,0,0,11.38-9.78c-24.47-28.47-44.16-48.27-44.36-48.47a7.58,7.58,0,0,0-10.62,0c-6,6-146.19,147.61-146.19,229.3,0,83.54,68,151.5,151.5,151.5s151.5-68,151.5-151.5c0-36.42-27.14-88.69-80.65-155.36A7.5,7.5,0,0,0,316.7,202Z"/><path class="cls-1" d="M430.21,36.5A421.11,421.11,0,0,0,397.56,1.06a7.5,7.5,0,0,0-10.32,0A421.41,421.41,0,0,0,354.6,36.5c-22.36,27.36-33.7,49.57-33.7,66a71.5,71.5,0,1,0,143,0C463.9,86.07,452.57,63.86,430.21,36.5ZM392.4,159a56.56,56.56,0,0,1-56.5-56.5c0-24,37-66,56.5-85.52,19.54,19.56,56.5,61.51,56.5,85.52A56.56,56.56,0,0,1,392.4,159Z"/><path class="cls-1" d="M191.91,102.5c0-16.44-11.34-38.64-33.69-66A420.38,420.38,0,0,0,125.56,1.06a7.49,7.49,0,0,0-10.32,0A420,420,0,0,0,82.6,36.5c-22.36,27.36-33.7,49.56-33.7,66a71.5,71.5,0,1,0,143,0Zm-128,0c0-24,37-66,56.5-85.52,19.54,19.56,56.5,61.51,56.5,85.52a56.5,56.5,0,0,1-113,0Z"/><path class="cls-1" d="M299.1,297.2l-96,96a7.5,7.5,0,1,0,10.6,10.6l96-96a7.5,7.5,0,0,0-10.6-10.6Z"/><path class="cls-1" d="M288.4,359a23.5,23.5,0,1,0,23.5,23.5A23.53,23.53,0,0,0,288.4,359Zm0,32a8.5,8.5,0,1,1,8.5-8.5A8.51,8.51,0,0,1,288.4,391Z"/><path class="cls-1" d="M224.4,342a23.5,23.5,0,1,0-23.5-23.5A23.53,23.53,0,0,0,224.4,342Zm0-32a8.5,8.5,0,1,1-8.5,8.5A8.51,8.51,0,0,1,224.4,310Z"/></g></svg>