<?xml version="1.0"?>
<svg xmlns="http://www.w3.org/2000/svg" width="512" height="512" viewBox="0 0 512 512"><g><path d="M248,416H80a8,8,0,0,0,0,16H248a8,8,0,0,0,0-16Z"/><path d="M288,416H272a8,8,0,0,0,0,16h16a8,8,0,0,0,0-16Z"/><path d="M344,176h32a8,8,0,0,0,8-8V80a8,8,0,0,0-8-8H344a8,8,0,0,0-8,8v88A8,8,0,0,0,344,176Zm8-88h16v72H352Z"/><path d="M344,232h32a8,8,0,0,0,8-8V192a8,8,0,0,0-8-8H344a8,8,0,0,0-8,8v32A8,8,0,0,0,344,232Zm8-32h16v16H352Z"/><path d="M472,152A111.931,111.931,0,0,0,294.04,61.55,151.148,151.148,0,0,0,255.9,45.32a39.987,39.987,0,0,0-79.8.06C111.58,63.11,64,122.75,64,193.38V377.12a16.007,16.007,0,0,1-2.43,8.48l-13.4,21.44A31.991,31.991,0,0,0,75.3,456h85.28a55.994,55.994,0,0,0,110.84,0H356.7a31.991,31.991,0,0,0,27.13-48.96l-13.4-21.44a16.007,16.007,0,0,1-2.43-8.48V263.71A112.141,112.141,0,0,0,472,152ZM216,24a24.044,24.044,0,0,1,23.18,17.78A153.017,153.017,0,0,0,215.98,40h-.05a150.561,150.561,0,0,0-23.11,1.78A24.044,24.044,0,0,1,216,24Zm0,464a40.069,40.069,0,0,1-39.2-32h78.4A40.069,40.069,0,0,1,216,488Zm154.27-72.48A16,16,0,0,1,356.7,440H75.3a16,16,0,0,1-13.57-24.48l13.4-21.44A31.883,31.883,0,0,0,80,377.12V193.38C80,117.67,140.98,56.04,215.93,56h.05A135.5,135.5,0,0,1,281.1,72.58,111.945,111.945,0,0,0,352,263.71V377.12a31.883,31.883,0,0,0,4.87,16.96ZM360,248a96,96,0,1,1,96-96A96.115,96.115,0,0,1,360,248Z"/></g></svg>
