<svg height="512" viewBox="0 0 60 60" width="512" xmlns="http://www.w3.org/2000/svg"><g id="Page-1" fill="none" fill-rule="evenodd"><g id="053---Guage" fill="rgb(0,0,0)" fill-rule="nonzero"><path id="Shape" d="m43 13c-7.4594912.0095269-14.0443779 4.8731104-16.247 12h-3.753c-.5522847 0-1-.4477153-1-1v-18c1.1045695 0 2-.8954305 2-2v-2c0-1.1045695-.8954305-2-2-2h-20c-1.1045695 0-2 .8954305-2 2v2c0 1.1045695.8954305 2 2 2v48c-1.1045695 0-2 .8954305-2 2v2c0 1.1045695.8954305 2 2 2h20c1.1045695 0 2-.8954305 2-2v-2c0-1.1045695-.8954305-2-2-2v-18c0-.5522847.4477153-1 1-1h3.753c2.5691 8.3485866 11.0470221 13.3915253 19.6095022 11.6643577s14.4225559-9.6622735 13.5544024-18.353964c-.8681534-8.6916904-8.1819648-15.310947-16.9169046-15.3103937zm-41-11h20v2h-20zm20 56h-20v-2h20zm1-25c-1.6568542 0-3 1.3431458-3 3v18h-16v-48h16v18c0 1.6568542 1.3431458 3 3 3h3.281c-.3746604 1.9824537-.3746604 4.0175463 0 6zm20 12c-8.2842712 0-15-6.7157288-15-15s6.7157288-15 15-15 15 6.7157288 15 15c-.0093685 8.2803876-6.7196124 14.9906315-15 15z"/><path id="Shape" d="m43 17c-7.1797017 0-13 5.8202983-13 13s5.8202983 13 13 13 13-5.8202983 13-13c-.008266-7.1762751-5.8237249-12.991734-13-13zm0 24c-6.0751322 0-11-4.9248678-11-11s4.9248678-11 11-11 11 4.9248678 11 11c-.0071635 6.0721626-4.9278374 10.9928365-11 11z"/><path id="Shape" d="m44 27.184v-4.184c0-.5522847-.4477153-1-1-1s-1 .4477153-1 1v4.184c-1.1981296.4174114-2.0009455 1.5472421-2.0009455 2.816s.8028159 2.3985886 2.0009455 2.816v2.184c0 .5522847.4477153 1 1 1s1-.4477153 1-1v-2.184c1.1981296-.4174114 2.0009455-1.5472421 2.0009455-2.816s-.8028159-2.3985886-2.0009455-2.816zm-1 3.816c-.5522847 0-1-.4477153-1-1s.4477153-1 1-1 1 .4477153 1 1-.4477153 1-1 1z"/><path id="Shape" d="m7 8c-.55228475 0-1 .44771525-1 1v2c0 .5522847.44771525 1 1 1s1-.4477153 1-1v-2c0-.55228475-.44771525-1-1-1z"/><path id="Shape" d="m7 14c-.55228475 0-1 .4477153-1 1v9c0 .5522847.44771525 1 1 1s1-.4477153 1-1v-9c0-.5522847-.44771525-1-1-1z"/></g></g></svg>