<svg id="Layer_1" data-name="Layer 1" xmlns="http://www.w3.org/2000/svg" viewBox="0 0 512 512"><defs><style>.cls-1{fill:#fff;}</style></defs><title>Artboard 1</title><path class="cls-1" d="M278.57,291V158.94a7.6,7.6,0,0,0-15.21,0V294.85a7.59,7.59,0,0,0,3.19,6.19,107.85,107.85,0,1,1-125,0,7.6,7.6,0,0,0,3.19-6.19V74.52a59.31,59.31,0,1,1,118.62,0v54a7.6,7.6,0,1,0,15.21,0v-54a74.52,74.52,0,1,0-149,0V291a123.06,123.06,0,1,0,149,0Z"/><path class="cls-1" d="M204.05,456.24a66.79,66.79,0,0,1-38.54-12.16,7.6,7.6,0,1,0-8.73,12.45,82.47,82.47,0,0,0,129.77-67.59,82.76,82.76,0,0,0-34.71-67.26L238,311.84V74.52a34,34,0,1,0-67.93,0V311.84l-13.83,9.85a82.46,82.46,0,0,0-20.59,113.36,7.6,7.6,0,1,0,12.6-8.52,67.25,67.25,0,0,1,16.82-92.46l17-12.13a7.6,7.6,0,0,0,3.2-6.19V286.39h37.51v29.36a7.6,7.6,0,0,0,3.19,6.19l17,12.13a67.3,67.3,0,0,1-39,122.16ZM222.81,155H185.3V112.1h37.51ZM185.3,170.2h37.51v42.89H185.3ZM204.05,55.76a18.78,18.78,0,0,1,18.76,18.76V96.89H185.3V74.52A18.78,18.78,0,0,1,204.05,55.76ZM185.3,271.19V228.3h37.51v42.89Z"/><path class="cls-1" d="M422.56,170.06c-5.3,0-8.2,2-8.6,6-1.14,9-2.87,22.5-24,22.5-17.3,0-25.72-8.79-25.72-26.87v-58c0-17.83,8.46-26.88,25.14-26.88,19.4,0,24.07,11.8,24.56,21.7.21,3.91,3.27,6.07,8.6,6.07s8.61-1.53,8.61-9.37c0-20.05-17.34-34.06-42.16-34.06-26.67,0-42,15.51-42,42.54v58c0,14.53,4.15,25.6,12.34,32.89,7.09,6.31,17.26,9.65,29.43,9.65,24.93,0,42.35-14.24,42.35-34.64C431.17,171.66,427.88,170.06,422.56,170.06Z"/><path class="cls-1" d="M357.8,49.45A24.84,24.84,0,1,0,333,74.29,24.87,24.87,0,0,0,357.8,49.45ZM333,59.08a9.63,9.63,0,1,1,9.63-9.63A9.65,9.65,0,0,1,333,59.08Z"/></svg>