<svg id="Layer_1" data-name="Layer 1" xmlns="http://www.w3.org/2000/svg" viewBox="0 0 512 512"><defs><style>.cls-1{fill:#fff;}</style></defs><title>Artboard 1</title><g id="Page-1"><g id="_053---Guage" data-name="053---Guage"><path id="Shape" class="cls-1" d="M366.93,110.93a145.31,145.31,0,0,0-138.64,102.4h-32a8.53,8.53,0,0,1-8.53-8.53V51.2A17.07,17.07,0,0,0,204.8,34.13V17.07A17.07,17.07,0,0,0,187.73,0H17.07A17.07,17.07,0,0,0,0,17.07V34.13A17.07,17.07,0,0,0,17.07,51.2V460.8A17.07,17.07,0,0,0,0,477.87v17.07A17.07,17.07,0,0,0,17.07,512H187.73a17.07,17.07,0,0,0,17.07-17.07V477.87a17.07,17.07,0,0,0-17.07-17.07V307.2a8.53,8.53,0,0,1,8.53-8.53h32A145.07,145.07,0,1,0,366.93,110.93ZM17.07,17.07H187.73V34.13H17.07ZM187.73,494.93H17.07V477.87H187.73Zm8.53-213.33a25.6,25.6,0,0,0-25.6,25.6V460.8H34.13V51.2H170.67V204.8a25.6,25.6,0,0,0,25.6,25.6h28a137.86,137.86,0,0,0,0,51.2ZM366.93,384a128,128,0,1,1,128-128A128,128,0,0,1,366.93,384Z"/><path id="Shape-2" data-name="Shape" class="cls-1" d="M366.93,145.07A110.93,110.93,0,1,0,477.87,256,110.93,110.93,0,0,0,366.93,145.07Zm0,204.8A93.87,93.87,0,1,1,460.8,256,93.87,93.87,0,0,1,366.93,349.87Z"/><path id="Shape-3" data-name="Shape" class="cls-1" d="M375.47,232v-35.7a8.53,8.53,0,1,0-17.07,0V232a25.45,25.45,0,0,0,0,48.06v18.64a8.53,8.53,0,1,0,17.07,0V280a25.45,25.45,0,0,0,0-48.06Zm-8.53,32.56a8.53,8.53,0,1,1,8.53-8.53A8.53,8.53,0,0,1,366.93,264.53Z"/><path id="Shape-4" data-name="Shape" class="cls-1" d="M59.73,68.27A8.53,8.53,0,0,0,51.2,76.8V93.87a8.53,8.53,0,0,0,17.07,0V76.8A8.53,8.53,0,0,0,59.73,68.27Z"/><path id="Shape-5" data-name="Shape" class="cls-1" d="M59.73,119.47A8.53,8.53,0,0,0,51.2,128v76.8a8.53,8.53,0,1,0,17.07,0V128A8.53,8.53,0,0,0,59.73,119.47Z"/></g></g></svg>