<svg xmlns="http://www.w3.org/2000/svg" height="511pt" version="1.1" viewBox="-48 1 511 511.99975" width="511pt">
<g id="surface1">
<path d="M 268.824219 203.382812 C 265.589844 205.980469 265.070312 210.710938 267.667969 213.949219 C 318.371094 277.113281 345.171875 327.6875 345.171875 360.203125 C 345.171875 435.617188 283.820312 496.96875 208.40625 496.96875 C 132.992188 496.96875 71.640625 435.617188 71.640625 360.203125 C 71.640625 293.003906 182.578125 173.460938 208.410156 146.542969 C 215.800781 154.230469 230.148438 169.476562 246.777344 188.820312 C 249.484375 191.96875 254.226562 192.328125 257.375 189.621094 C 260.523438 186.914062 260.882812 182.171875 258.175781 179.023438 C 233.660156 150.5 213.925781 130.65625 213.730469 130.457031 C 210.835938 127.554688 205.980469 127.554688 203.085938 130.457031 C 197.101562 136.460938 56.609375 278.355469 56.609375 360.203125 C 56.609375 443.90625 124.703125 512 208.40625 512 C 292.105469 512 360.203125 443.902344 360.203125 360.203125 C 360.203125 323.714844 333.011719 271.339844 279.390625 204.539062 C 276.792969 201.304688 272.0625 200.785156 268.824219 203.382812 Z M 268.824219 203.382812 " style=" stroke:none;fill-rule:nonzero;fill:rgb(0%,0%,0%);fill-opacity:1;" />
<path d="M 382.554688 37.570312 C 366.40625 17.808594 350.507812 2.691406 349.839844 2.058594 C 346.941406 -0.6875 342.402344 -0.6875 339.503906 2.058594 C 338.835938 2.695312 322.9375 17.808594 306.792969 37.570312 C 284.390625 64.988281 273.03125 87.234375 273.03125 103.703125 C 273.03125 143.203125 305.171875 175.34375 344.671875 175.34375 C 384.175781 175.34375 416.3125 143.203125 416.3125 103.703125 C 416.3125 87.234375 404.953125 64.988281 382.554688 37.570312 Z M 344.671875 160.3125 C 313.457031 160.3125 288.0625 134.917969 288.0625 103.703125 C 288.0625 79.667969 325.097656 37.617188 344.671875 18.015625 C 364.25 37.609375 401.28125 79.644531 401.28125 103.703125 C 401.28125 134.917969 375.886719 160.3125 344.671875 160.3125 Z M 344.671875 160.3125 " style=" stroke:none;fill-rule:nonzero;fill:rgb(0%,0%,0%);fill-opacity:1;" />
<path d="M 143.78125 103.703125 C 143.78125 87.234375 132.421875 64.988281 110.023438 37.574219 C 93.875 17.808594 77.976562 2.695312 77.308594 2.0625 C 74.410156 -0.6875 69.871094 -0.6875 66.972656 2.0625 C 66.304688 2.695312 50.40625 17.808594 34.261719 37.574219 C 11.855469 64.988281 0.5 87.234375 0.5 103.703125 C 0.5 143.203125 32.636719 175.34375 72.140625 175.34375 C 111.640625 175.34375 143.78125 143.203125 143.78125 103.703125 Z M 15.527344 103.703125 C 15.527344 79.667969 52.566406 37.617188 72.140625 18.015625 C 91.714844 37.609375 128.75 79.644531 128.75 103.703125 C 128.75 134.917969 103.355469 160.3125 72.140625 160.3125 C 40.925781 160.3125 15.527344 134.917969 15.527344 103.703125 Z M 15.527344 103.703125 " style=" stroke:none;fill-rule:nonzero;fill:rgb(0%,0%,0%);fill-opacity:1;" />
<path d="M 251.1875 298.78125 L 155 394.96875 C 152.261719 397.703125 152.082031 402.222656 154.597656 405.164062 C 157.410156 408.445312 162.570312 408.652344 165.625 405.59375 L 261.8125 309.40625 C 264.707031 306.511719 264.707031 301.675781 261.8125 298.78125 C 258.917969 295.882812 254.082031 295.882812 251.1875 298.78125 Z M 251.1875 298.78125 " style=" stroke:none;fill-rule:nonzero;fill:rgb(0%,0%,0%);fill-opacity:1;" />
<path d="M 240.46875 360.703125 C 227.484375 360.703125 216.921875 371.265625 216.921875 384.25 C 216.921875 397.234375 227.484375 407.796875 240.46875 407.796875 C 253.453125 407.796875 264.015625 397.234375 264.015625 384.25 C 264.015625 371.265625 253.453125 360.703125 240.46875 360.703125 Z M 240.46875 392.765625 C 235.773438 392.765625 231.953125 388.945312 231.953125 384.25 C 231.953125 379.554688 235.773438 375.734375 240.46875 375.734375 C 245.164062 375.734375 248.984375 379.554688 248.984375 384.25 C 248.984375 388.945312 245.164062 392.765625 240.46875 392.765625 Z M 240.46875 392.765625 " style=" stroke:none;fill-rule:nonzero;fill:rgb(0%,0%,0%);fill-opacity:1;" />
<path d="M 176.34375 343.671875 C 189.328125 343.671875 199.890625 333.109375 199.890625 320.125 C 199.890625 307.140625 189.328125 296.578125 176.34375 296.578125 C 163.359375 296.578125 152.796875 307.140625 152.796875 320.125 C 152.796875 333.109375 163.359375 343.671875 176.34375 343.671875 Z M 176.34375 311.609375 C 181.039062 311.609375 184.859375 315.429688 184.859375 320.125 C 184.859375 324.820312 181.039062 328.640625 176.34375 328.640625 C 171.648438 328.640625 167.828125 324.820312 167.828125 320.125 C 167.828125 315.429688 171.648438 311.609375 176.34375 311.609375 Z M 176.34375 311.609375 " style=" stroke:none;fill-rule:nonzero;fill:rgb(0%,0%,0%);fill-opacity:1;" />
</g>
</svg>